<?xml version="1.0" encoding="utf-8"?>
<svg xmlns="http://www.w3.org/2000/svg" xmlns:xlink="http://www.w3.org/1999/xlink" version= "1.1" width="409px" height="292px" viewBox="245 993 409 292">
<g id="layer1">
<g style="fill:rgb(0,178,230); fill-opacity:1.0; stroke-linejoin: miter">
<path d="M244.999,992.7704C244.93835,992.7704,244.8802,992.7945,244.83733,992.83734C244.79445,992.8802,244.77037,992.9384,244.77037,992.999L244.77138,1285.0C244.77138,1285.1262,244.87373,1285.2286,245.0,1285.2286L654.001,1285.2296C654.0616,1285.2296,654.1198,1285.2054,654.16266,1285.1626C654.2055,1285.1198,654.2296,1285.0616,654.2296,1285.001L654.22864,993.0C654.22864,992.8737,654.1263,992.77136,654.0,992.77136L244.999,992.7704 Z"/>
</g>
<g style="fill:rgb(0,0,0); fill-opacity:1.0; stroke-linejoin: miter">
<path d="M429.80292,1199.9254L453.41797,1199.9254L477.0332,1199.9254Q477.03314,1229.7529,477.03314,1259.5802Q453.41785,1259.5802,429.8028,1259.5802Q429.80286,1229.7527,429.80292,1199.9254 Z"/>
</g>
<g style="fill:rgb(0,0,0); fill-opacity:1.0; stroke-linejoin: miter">
<path d="M343.69147,1070.6251L453.7636,1070.6254L563.8359,1070.6256Q563.8359,1142.2026,563.8359,1213.7799Q453.7636,1213.7799,343.69135,1213.7799Q343.69147,1142.2026,343.69147,1070.6251 Z"/>
</g>
<g style="fill:rgb(60,70,79); fill-opacity:1.0; stroke-linejoin: miter">
<path d="M349.27777,1077.0862L453.7636,1077.0862L558.2495,1077.0864Q558.2495,1141.8142,558.2495,1206.5417Q453.7636,1206.5417,349.27765,1206.542Q349.27777,1141.8137,349.27777,1077.0862 Z"/>
</g>
<g style="fill:rgb(0,0,0); fill-opacity:1.0; stroke-linejoin: miter">
<path d="M395.86896,1253.0468L453.41785,1253.047L510.96686,1253.047Q510.96686,1257.6262,510.96686,1262.2052Q453.41785,1262.2052,395.86896,1262.2054Q395.86896,1257.6262,395.86896,1253.0468 Z"/>
</g>
<g style="fill:rgb(165,179,188); fill-opacity:1.0; stroke-linejoin: miter">
<path d="M443.68158,1080.1786L465.2558,1080.1786L486.82983,1080.1787Q486.82983,1100.5555,486.82983,1120.9325Q465.2558,1120.9325,443.68158,1120.9327Q443.68158,1100.5555,443.68158,1080.1786"/>
</g>
<g style="fill:rgb(255,252,252); fill-opacity:1.0; stroke-linejoin: miter">
<path d="M477.30902,1103.1646L476.9571,1105.1185Q476.60754,1106.4181,476.10345,1107.5801Q475.94818,1108.2467,474.24384,1110.7576Q472.77228,1112.6709,470.68237,1114.0355Q468.57935,1115.3971,466.27026,1115.887Q465.11566,1116.1321,463.90967,1116.1589Q463.3388,1116.3087,460.1751,1115.7487Q457.247,1114.7214,456.81873,1114.3164Q455.79828,1113.7141,454.90906,1112.9456Q453.13055,1111.4078,451.87683,1109.2058Q449.12152,1103.9098,450.29724,1098.678Q450.8499,1096.069,452.08557,1093.9539Q452.70343,1092.8964,453.492,1091.9622Q453.79187,1091.4076,456.21796,1089.4578Q460.20258,1086.6256,465.3642,1087.0825Q466.07947,1087.0597,468.94476,1088.0454Q470.04932,1088.5038,471.03534,1089.1454Q473.0075,1090.4287,474.50543,1092.4458Q476.2079,1095.0377,476.31512,1095.6534Q476.7724,1096.7834,477.03528,1097.9949Q477.56097,1100.4176,477.30902,1103.1646"/>
</g>
<g style="fill:rgb(0,0,0); fill-opacity:1.0; stroke-linejoin: miter">
<path d="M458.18567,1103.2573L458.00323,1103.0193C457.17084,1101.9912,456.71503,1101.1027,456.58453,1100.3627C456.46783,1099.7008,455.41852,1097.6302,456.06042,1096.2518C455.92902,1093.751,458.0144,1091.9467,458.0144,1091.9467C458.8537,1090.8688,459.779,1090.7345,462.081,1090.0795C463.88934,1089.5646,465.86212,1090.1624,466.77563,1090.4227C469.80353,1091.2848,471.27118,1095.321,471.27118,1095.321C471.71674,1096.3987,471.12073,1098.5673,471.12262,1099.3256C471.12427,1100.0452,470.93842,1101.3425,470.49976,1103.22L458.18567,1103.2573 Z"/>
</g>
<g style="fill:rgb(183,107,77); fill-opacity:1.0; stroke-linejoin: miter">
<path d="M462.7962,1118.7408L462.7962,1118.7413L462.7962,1118.7413L462.7301,1118.6691C462.4325,1118.3732,462.24756,1118.0342,462.1579,1117.6562C462.08044,1117.3297,463.78088,1117.8688,463.85474,1116.8761C463.03467,1116.6078,461.53308,1117.2512,461.16302,1116.8124C460.81665,1116.4019,458.7177,1116.9425,458.10596,1115.5127L459.11884,1108.6378C458.39227,1107.483,457.98553,1106.2305,457.8982,1104.8804C457.235,1105.3735,456.71375,1105.1324,456.3354,1104.1562C455.86505,1102.9424,455.68207,1102.044,455.83508,1101.4731C455.98016,1100.9325,456.27136,1100.7224,456.6634,1100.8112C456.911,1100.8672,457.18365,1101.2502,457.47766,1101.9763L457.87805,1100.7958C457.7096,1099.952,457.65265,1099.2712,457.72974,1098.7568C457.79218,1098.3408,457.9676,1097.8789,458.23376,1097.3677C460.3352,1096.5427,461.97552,1096.1033,463.14594,1095.9668C464.30103,1095.8315,466.14697,1095.8625,468.695,1096.1439L470.01025,1098.518L470.17194,1101.8475C470.41913,1100.9055,470.68665,1100.331,470.9256,1100.076C471.28583,1099.692,471.56726,1099.6385,471.72083,1100.009C471.93866,1100.5356,471.85516,1101.5446,471.5426,1102.9897C471.32025,1104.0184,470.7937,1104.5366,469.99518,1104.5522C470.03546,1105.9199,469.77814,1106.9521,469.2237,1107.6497L469.2627,1111.3976C469.29773,1114.7605,469.91718,1115.8989,468.32062,1115.6041C466.72394,1115.3093,467.3985,1114.5448,466.5846,1116.455C465.5133,1118.9696,466.83557,1116.2576,465.529,1116.8142L464.26398,1117.9631L462.7962,1118.7408L462.7962,1118.7413L462.7962,1118.7408 Z"/>
</g>
<g style="fill:rgb(255,0,0); fill-opacity:0.08627451; stroke-linejoin: miter">
<path d="M459.22565,1108.7954L459.51385,1109.027Q461.2458,1110.4261,462.22504,1110.9249Q463.1604,1111.414,464.11548,1111.3234Q464.32556,1111.2977,464.54004,1111.2401Q464.64453,1111.2311,465.1936,1110.9968Q465.63605,1110.7872,466.09613,1110.4513Q466.71918,1110.0737,469.1463,1107.6494L464.16583,1113.5385L459.22565,1108.7954 Z"/>
</g>
<g style="fill:rgb(255,255,255); fill-opacity:0.99607843; stroke-linejoin: miter">
<path d="M462.16498,1110.1681L462.16498,1110.1683L462.16498,1110.1683L462.16498,1110.1681 Z"/>
</g>
<g style="fill:rgb(255,255,255); fill-opacity:0.99607843; stroke-linejoin: miter">
<path d="M465.9823,1100.4651L466.06616,1100.4224Q466.52826,1100.1794,466.81476,1100.128Q466.8966,1100.1128,466.97754,1100.1095L467.0827,1100.1112L467.16467,1100.1201Q467.24634,1100.1324,467.32733,1100.1553Q467.3681,1100.1617,467.5688,1100.242Q467.68896,1100.2914,467.96716,1100.4382Q467.62103,1100.6936,467.42474,1100.7854Q467.26813,1100.8628,467.10718,1100.8876L467.00922,1100.8953L466.92615,1100.8916L466.84235,1100.8801Q466.67426,1100.8462,466.5022,1100.7634Q466.2439,1100.635,465.9823,1100.4651 Z"/>
</g>
<g style="fill:rgb(0,0,0); fill-opacity:0.99607843; stroke-linejoin: miter">
<path d="M466.70978,1100.1354L466.6928,1100.1582Q466.57727,1100.3044,466.5583,1100.4381Q466.5371,1100.5548,466.61475,1100.8523Q466.8531,1100.8986,467.01202,1100.8953Q467.14984,1100.8953,467.44666,1100.8358Q467.5603,1100.6187,467.5619,1100.5073Q467.5733,1100.3965,467.48547,1100.1687Q467.16113,1100.097,467.0351,1100.0947Q466.90796,1100.0853,466.70978,1100.1354 Z"/>
</g>
<g style="fill:rgb(0,0,0); fill-opacity:1.0; stroke-linejoin: miter">
<path d="M466.10773,1099.5563L466.10754,1099.5563Q466.3891,1099.399,466.5511,1099.3413Q466.61584,1099.3171,466.68152,1099.3004L466.7478,1099.2854L466.81494,1099.2747L466.883,1099.2689Q466.96765,1099.2653,467.05896,1099.276L467.12012,1099.2845Q467.18152,1099.2949,467.2437,1099.3099Q467.36725,1099.3335,467.7506,1099.4764L466.10773,1099.5563 Z"/>
</g>
<g style="fill:rgb(255,255,255); fill-opacity:0.99607843; stroke-linejoin: miter">
<path d="M462.0088,1100.6804L461.9231,1100.6415Q461.4502,1100.4204,461.16168,1100.3821Q461.07916,1100.3704,460.9981,1100.3713L460.8932,1100.3774L460.81177,1100.3905Q460.73065,1100.4064,460.65094,1100.4331Q460.6103,1100.4415,460.41364,1100.5312Q460.29578,1100.586,460.02472,1100.7457Q460.3824,1100.9846,460.58264,1101.0671Q460.74274,1101.1371,460.9046,1101.1542L461.00293,1101.1577L461.08575,1101.1505L461.16888,1101.1348Q461.33527,1101.0933,461.5033,1101.0022Q461.7555,1100.8619,462.0088,1100.6804 Z"/>
</g>
<g style="fill:rgb(0,0,0); fill-opacity:0.99607843; stroke-linejoin: miter">
<path d="M461.26697,1100.3846L461.28485,1100.4066Q461.40704,1100.5472,461.43213,1100.6799Q461.4588,1100.7957,461.39496,1101.0962Q461.15906,1101.1537,461.00006,1101.1577Q460.86255,1101.164,460.56293,1101.1185Q460.43945,1100.9071,460.4328,1100.7958Q460.4162,1100.6857,460.49347,1100.4537Q460.81427,1100.3676,460.93994,1100.3591Q461.06653,1100.344,461.26697,1100.3846 Z"/>
</g>
<g style="fill:rgb(0,0,0); fill-opacity:1.0; stroke-linejoin: miter">
<path d="M461.84143,1099.7783L461.84143,1099.7783Q461.55286,1099.6343,461.38843,1099.584Q461.3227,1099.5631,461.25604,1099.549L461.1891,1099.5372L461.1217,1099.5295L461.05334,1099.5273Q460.96857,1099.5273,460.8778,1099.542L460.81732,1099.5537Q460.7564,1099.5669,460.6949,1099.5845Q460.57275,1099.6141,460.1963,1099.7744L461.84143,1099.7783 Z"/>
</g>
<g style="fill:rgb(255,0,0); fill-opacity:0.07058824; stroke-linejoin: miter">
<path d="M461.86676,1107.1293L461.99298,1107.081Q462.95404,1106.7124,463.2998,1106.696Q463.50232,1106.6686,463.7791,1106.7163Q463.97638,1106.753,464.26996,1106.8595Q464.61053,1106.6604,464.80902,1106.5846Q465.08466,1106.4846,465.23248,1106.5159Q465.42212,1106.5455,465.58435,1106.6674Q465.7774,1106.8063,466.06958,1107.1376Q465.4577,1107.4312,465.30658,1107.4807Q464.55804,1107.7795,463.88232,1107.7053Q463.47882,1107.6604,463.04883,1107.5342Q462.33527,1107.3138,461.86676,1107.1293 Z"/>
</g>
<g style="fill:rgb(255,0,0); fill-opacity:0.07058824; stroke-linejoin: miter">
<path d="M462.7069,1103.5004L463.36304,1104.137L464.01898,1104.7733Q464.54584,1104.1085,465.0727,1103.4437Q464.5213,1103.8041,463.96967,1104.1649L462.7069,1103.5004 Z"/>
</g>
<g style="fill:rgb(242,226,226); fill-opacity:0.99607843; stroke-linejoin: miter">
<path d="M465.05438,1100.1609L465.05438,1100.1609L465.05432,1100.1609L465.05438,1100.1609 Z"/>
</g>
<g style="fill:rgb(255,0,0); fill-opacity:0.07058824; stroke-linejoin: miter">
<path d="M461.96436,1109.7897L461.9643,1109.7902Q462.67615,1109.7091,463.02533,1109.6827Q463.36804,1109.6582,463.42267,1109.6588Q463.54626,1109.6545,463.65485,1109.6564Q463.76318,1109.6578,463.8565,1109.6653L463.94684,1109.674Q464.0338,1109.684,464.11,1109.6981Q464.30316,1109.7327,464.5677,1109.8269L461.96436,1109.7897 Z"/>
</g>
<g style="fill:rgb(9,1,4); fill-opacity:0.99607843; stroke-linejoin: miter">
<path d="M470.85608,1100.2253L470.90155,1099.9872Q471.00055,1099.462,470.99988,1099.3416Q471.0135,1099.2192,470.945,1099.2758Q470.84607,1099.3536,470.12048,1101.1251L470.247,1099.8439Q469.042,1106.535,468.2542,1107.3708Q467.86798,1107.9211,467.28546,1107.9901Q466.9768,1108.0725,465.41064,1107.7793Q465.03442,1107.741,464.78967,1107.865Q464.37903,1107.998,464.05328,1109.1005Q463.52563,1108.0344,462.71173,1107.9198Q462.12732,1107.8663,461.74817,1107.9967Q461.46973,1108.039,460.55762,1108.5673L460.30347,1108.6335Q459.98163,1108.6653,459.71808,1108.3102Q459.38477,1107.9216,458.99017,1106.374Q458.73065,1105.4541,457.7047,1100.0688Q457.5016,1099.1941,457.4018,1099.6335Q457.32672,1100.0002,457.3014,1101.4243Q457.53656,1103.1661,457.8214,1104.841Q458.50494,1108.552,459.32898,1110.0187Q461.04694,1113.2556,464.04974,1113.5903Q464.6643,1113.5966,464.97144,1113.4958L465.37372,1113.3557Q465.7633,1113.1837,466.10455,1112.9152Q467.01996,1112.2446,467.96356,1110.4393Q468.8753,1108.6034,469.2207,1107.2551Q469.4491,1106.5295,470.85608,1100.2253"/>
</g>
<g style="fill:rgb(9,1,4); fill-opacity:0.99607843; stroke-linejoin: miter">
<path d="M464.03186,1105.6383L464.03186,1105.6383L461.36298,1106.1115Q461.11664,1107.8541,460.8706,1109.5969Q461.28467,1108.2615,461.6988,1106.9257L464.03186,1105.6383"/>
</g>
<g style="fill:rgb(9,1,4); fill-opacity:0.99607843; stroke-linejoin: miter">
<path d="M464.29254,1105.6085L464.29254,1105.6085Q465.61426,1105.874,466.93604,1106.1401L467.2519,1109.8468Q466.71716,1108.2264,466.18237,1106.6062L464.29254,1105.6085"/>
</g>
<g style="fill:rgb(165,179,188); fill-opacity:1.0; stroke-linejoin: miter">
<path d="M483.79395,1100.8408L483.79395,1100.8408C483.79395,1111.7722,474.93225,1120.6344,464.00073,1120.6344L464.00073,1120.6344C453.0692,1120.6344,444.20752,1111.7725,444.20752,1100.8408L444.20752,1100.8408C444.20752,1089.9095,453.06927,1081.0479,464.00073,1081.0479L464.00073,1081.0479C474.93195,1081.0479,483.79395,1089.9093,483.79395,1100.8408L483.79395,1100.8408 M451.13806,1100.8408L451.13806,1100.8408C451.13806,1107.9451,456.89697,1113.7036,464.00073,1113.7036L464.00073,1113.7036C471.1045,1113.7036,476.8634,1107.945,476.8634,1100.8408L476.8634,1100.8408C476.8634,1093.7372,471.1046,1087.9784,464.00073,1087.9784L464.00073,1087.9784C456.8968,1087.9784,451.13806,1093.7369,451.13806,1100.8408 Z"/>
</g>
<g>
<g style="fill:rgb(165,179,188); fill-opacity:1.0; stroke-linejoin: miter">
<path d="M352.78986,1080.1217L374.364,1080.122L395.93817,1080.122Q395.93817,1100.499,395.93817,1120.8759Q374.364,1120.8761,352.78986,1120.8761Q352.78986,1100.499,352.78986,1080.1217"/>
</g>
<g style="fill:rgb(255,252,252); fill-opacity:1.0; stroke-linejoin: miter">
<path d="M387.8,1102.3931L387.43585,1104.3677Q385.78796,1110.2738,380.75134,1113.3461Q375.68304,1116.4117,369.45856,1115.0016Q363.55292,1113.3534,360.48047,1108.3171Q359.49762,1106.6902,358.95325,1104.8431L358.5337,1102.9598Q358.2317,1101.0314,358.4607,1098.9993Q359.3391,1092.7847,363.9572,1089.1237Q368.57526,1085.4628,374.8272,1086.0266Q381.04266,1086.905,384.7032,1091.5233Q388.3637,1096.1412,387.8,1102.3931"/>
</g>
<g style="fill:rgb(165,179,188); fill-opacity:1.0; stroke-linejoin: miter">
<path d="M369.1084,1109.7166L369.16565,1110.3373L369.16553,1110.3373L369.16412,1110.337L369.1648,1110.337L369.164,1110.3373L369.16345,1110.3373Q369.16376,1110.337,369.164,1110.337L369.16406,1110.3373L369.164,1110.337L369.1656,1110.3373L369.1084,1109.7166 Z"/>
</g>
<g style="fill:rgb(0,0,0); fill-opacity:1.0; stroke-linejoin: miter">
<path d="M368.02393,1105.308L367.73468,1104.7518C366.86163,1103.0814,366.28857,1101.803,366.05115,1100.9055C365.72186,1099.6609,365.6629,1098.7908,365.73962,1098.2853C365.8955,1097.2609,366.172,1096.328,366.68243,1095.5099C367.3717,1094.4045,368.11395,1093.6724,368.88574,1093.2865C369.5431,1092.9578,370.3703,1092.7743,371.37677,1092.7559C372.5504,1092.024,373.34387,1091.6592,373.73468,1091.5571C374.32898,1091.4016,374.92566,1091.396,375.56824,1091.601C376.25922,1091.8209,377.20984,1092.4999,378.39795,1093.6895C379.69824,1094.9924,380.6062,1096.1733,381.13947,1097.2194C381.43146,1097.7924,381.60992,1098.3605,381.66748,1098.9274L381.67767,1099.3481C381.66638,1099.627,381.625,1099.9038,381.55353,1100.1781C381.30328,1101.1383,380.93347,1103.5253,379.8177,1104.9773L380.37134,1105.2363L368.02393,1105.308 Z"/>
</g>
<g style="fill:rgb(255,194,157); fill-opacity:1.0; stroke-linejoin: miter">
<path d="M369.8103,1115.1653L369.43524,1115.1744L369.80988,1110.4575C369.09833,1109.5021,368.47833,1108.4282,367.95605,1107.2747C367.68054,1106.6661,367.44263,1105.3676,367.50012,1103.8739C367.59143,1101.5076,367.99347,1099.7505,368.35748,1098.5924C368.609,1097.7937,368.82416,1097.3654,368.89368,1097.2499C369.19867,1096.7429,369.53882,1096.3245,369.90887,1095.9601C370.28992,1095.5848,371.156,1095.0566,372.5752,1094.4409C374.72815,1096.801,376.6809,1098.4385,378.4333,1099.352L379.29877,1102.1277L379.81567,1104.2894L380.16827,1102.3407C380.42853,1102.7593,380.5982,1103.1565,380.67383,1103.5331C380.80896,1104.2062,380.72028,1105.0884,380.39233,1106.1729C380.19678,1106.8195,379.8828,1107.1024,379.469,1107.0282C379.49597,1107.8225,379.07465,1109.0254,378.49402,1110.0553L378.75757,1113.2428L378.388,1115.824C377.06342,1116.7761,375.75,1117.1163,374.43347,1116.9436C373.26685,1116.7906,372.2359,1116.5979,371.36108,1116.2446C370.68,1115.9692,370.16614,1115.602,369.8103,1115.1653 Z"/>
</g>
<g style="fill:rgb(255,0,0); fill-opacity:0.11764706; stroke-linejoin: miter">
<path d="M372.46655,1105.4391L373.71564,1106.4053L374.8379,1105.1354L373.68274,1105.7971L372.46655,1105.4391"/>
</g>
<g style="fill:rgb(255,0,0); fill-opacity:0.08235294; stroke-linejoin: miter">
<path d="M369.4104,1109.8031L369.63586,1110.0048Q370.73645,1111.0573,371.84924,1111.5554Q372.98016,1112.0405,374.40857,1111.9542Q375.79865,1111.8484,376.65833,1111.3439Q377.45465,1110.8925,378.29492,1109.5753L374.53784,1115.0735L369.4104,1109.8031"/>
</g>
<g style="fill:rgb(0,0,0); fill-opacity:1.0; stroke-linejoin: miter">
<path d="M369.9953,1102.0422L370.0561,1102.0581Q370.32935,1102.1293,370.47986,1102.161Q370.57788,1102.1838,370.7641,1102.2128Q371.05408,1102.2533,371.24658,1102.2375Q371.3465,1102.2308,371.4444,1102.214L371.54187,1102.1946Q371.63873,1102.1733,371.73438,1102.1439Q371.9735,1102.0729,372.3927,1101.887L369.9953,1102.0422"/>
</g>
<g style="fill:rgb(0,0,0); fill-opacity:1.0; stroke-linejoin: miter">
<path d="M375.23444,1101.8019L375.2953,1101.8174Q375.60352,1101.8971,375.74182,1101.9257Q375.83783,1101.9465,376.0033,1101.9724Q376.0385,1101.9786,376.1858,1101.9929Q376.24298,1101.9978,376.29535,1101.9996Q376.38916,1102.0046,376.508,1101.9951Q376.63544,1101.9857,376.78094,1101.9542Q376.9143,1101.9237,377.02893,1101.8864Q377.25928,1101.8115,377.6319,1101.646L375.23444,1101.8019"/>
</g>
<g style="fill:rgb(0,0,0); fill-opacity:1.0; stroke-linejoin: miter">
<path d="M370.0479,1099.8568L370.0479,1099.8568Q370.56903,1099.9469,370.84192,1099.9768Q370.95154,1099.9897,371.0572,1099.9974L371.16162,1100.0034L371.2635,1100.0067L371.36285,1100.0073L371.4594,1100.004L371.55322,1099.9977L371.64465,1099.9884Q371.7348,1099.978,371.82104,1099.9623Q372.03784,1099.9249,372.398,1099.8221L370.0479,1099.8568"/>
</g>
<g style="fill:rgb(0,0,0); fill-opacity:1.0; stroke-linejoin: miter">
<path d="M375.0357,1099.4121L375.0357,1099.4121Q375.2674,1099.4523,375.44995,1099.4803Q375.6007,1099.5049,375.8297,1099.5323Q376.00592,1099.5522,376.14935,1099.5591L376.25146,1099.5625L376.35077,1099.563L376.44727,1099.5596L376.54102,1099.553Q376.66974,1099.5422,376.80902,1099.5176Q377.09064,1099.4646,377.38593,1099.3777L375.0357,1099.4121"/>
</g>
<g style="fill:rgb(255,0,0); fill-opacity:0.11764706; stroke-linejoin: miter">
<path d="M371.77325,1107.9355L371.87122,1107.9097Q372.76263,1107.6766,372.99872,1107.6659Q373.31354,1107.63,373.75708,1107.6481Q374.1209,1107.6129,374.30377,1107.6107Q374.6775,1107.6051,375.0728,1107.646Q375.55597,1107.6935,376.54022,1107.8359Q375.18372,1108.0251,374.78406,1108.0623Q374.4212,1108.0983,374.1692,1108.118Q373.8963,1108.1353,373.68524,1108.1398Q373.42853,1108.1431,373.37744,1108.1401Q373.27496,1108.1378,373.1725,1108.1327Q372.96753,1108.1223,372.76318,1108.1001Q372.57758,1108.0793,372.36145,1108.0444Q371.9726,1107.9789,371.77325,1107.9355"/>
</g>
<g style="fill:rgb(165,179,188); fill-opacity:1.0; stroke-linejoin: miter">
<path d="M393.25452,1101.1395L393.25452,1101.1395C393.25452,1112.0709,384.39288,1120.9327,373.46136,1120.9327L373.46136,1120.9327C362.52985,1120.9327,353.6682,1112.0713,353.6682,1101.1395L353.6682,1101.1395C353.6682,1090.2078,362.5299,1081.3463,373.46136,1081.3463L373.46136,1081.3463C384.39258,1081.3463,393.25452,1090.2078,393.25452,1101.1395L393.25452,1101.1395 M360.59863,1101.1395L360.59863,1101.1395C360.59863,1108.2438,366.3576,1114.0023,373.46136,1114.0023L373.46136,1114.0023C380.56506,1114.0023,386.32397,1108.2435,386.32397,1101.1395L386.32397,1101.1395C386.32397,1094.0358,380.5652,1088.2769,373.46136,1088.2769L373.46136,1088.2769C366.35742,1088.2769,360.59863,1094.0358,360.59863,1101.1395 Z"/>
</g>
</g>
<g>
<g style="fill:rgb(165,179,188); fill-opacity:1.0; stroke-linejoin: miter">
<path d="M398.23578,1080.1783L441.38397,1080.1786L441.38397,1120.9325L398.23578,1120.9327L398.23578,1080.1783"/>
</g>
<g style="fill:rgb(255,252,252); fill-opacity:1.0; stroke-linejoin: miter">
<path d="M433.31287,1101.6195L432.96417,1103.5549Q431.4071,1109.345,426.75012,1112.386Q422.0639,1115.4208,416.34387,1114.0833Q410.919,1112.5107,408.12512,1107.6033Q407.23145,1106.0176,406.74286,1104.2136L406.36963,1102.3732Q406.1048,1100.4886,406.3294,1098.4984Q407.18024,1092.4102,411.45612,1088.797Q415.732,1085.183,421.4829,1085.6923Q427.19818,1086.5094,430.5362,1091.0038Q433.8742,1095.4976,433.31287,1101.6195"/>
</g>
<g style="fill:rgb(0,0,0); fill-opacity:1.0; stroke-linejoin: miter">
<path d="M426.2995,1104.0602L426.55933,1103.5483Q427.3844,1102.0321,427.7989,1100.3381Q428.02917,1098.8767,427.95667,1098.5334Q427.9342,1097.8988,427.7862,1097.2104Q427.29315,1095.4398,427.04303,1095.0627Q426.7011,1094.3344,426.2478,1093.6422Q425.33472,1092.2341,424.0525,1091.258Q421.81555,1089.5376,418.8734,1090.3652Q415.96124,1091.2589,414.4013,1094.009Q413.31116,1096.1605,413.66852,1099.2347Q413.89484,1101.7161,415.35883,1106.699L426.2995,1104.0602"/>
</g>
<g style="fill:rgb(189,122,92); fill-opacity:1.0; stroke-linejoin: miter">
<path d="M423.61816,1113.2184L423.61816,1113.2184L423.2099,1110.6631L425.30383,1107.9954C425.5979,1107.5599,425.7943,1107.238,425.91522,1107.0432C426.313,1106.4011,426.5965,1105.6366,426.7348,1104.7343C426.83215,1104.0991,426.83557,1103.2139,426.90192,1102.0848C426.94983,1101.2667,427.0808,1100.4858,427.1151,1099.7269C427.15387,1098.8688,427.11853,1098.2947,427.06787,1098.0011C426.8769,1096.8942,426.3523,1095.921,425.4677,1095.086L422.5204,1098.3456C422.14105,1098.7461,421.8706,1098.9833,421.72705,1099.0853C421.5307,1099.2241,421.3177,1099.3319,421.06824,1099.382C421.04742,1099.4253,420.6001,1099.3527,419.7141,1099.2802C419.47345,1099.2606,419.28546,1099.3538,419.14642,1099.437C418.91766,1099.5735,418.6764,1099.7654,418.4489,1100.0375C417.50238,1101.1694,417.04297,1101.7177,417.04822,1101.6626C416.7052,1101.9774,416.36865,1102.1907,416.03864,1102.3025C415.70856,1102.4138,415.38074,1102.492,415.055,1102.5356C415.08875,1100.9475,415.0161,1099.9009,414.79895,1099.4128C414.50702,1098.7565,414.08032,1098.6892,413.6209,1099.2479C413.12488,1099.851,413.04913,1101.0787,413.36127,1102.8723C413.66412,1104.6139,414.24554,1105.0055,415.0716,1104.0546C415.28992,1105.6158,415.39197,1107.1442,415.39453,1108.641C415.39624,1109.6217,415.27722,1111.3082,415.07275,1112.0167C414.32812,1114.5985,415.7257,1113.0433,416.85565,1114.6881L421.0365,1117.976L423.61816,1113.2184L423.61816,1113.2184 Z"/>
</g>
<g style="fill:rgb(255,255,255); fill-opacity:1.0; stroke-linejoin: miter">
<path d="M421.28387,1101.5896L421.20935,1101.5177Q420.98724,1101.2971,420.7519,1101.1245Q420.6731,1101.0684,420.5912,1101.0233L420.50836,1100.9816L420.42365,1100.9467Q420.3128,1100.9102,420.29883,1100.9092Q420.12677,1100.866,419.85474,1100.8882Q419.63672,1100.9044,419.1784,1101.0189Q419.5232,1101.29,419.7251,1101.4069Q419.80566,1101.4548,419.8886,1101.4941L419.97235,1101.5314Q420.0567,1101.5663,420.1443,1101.5902L420.2072,1101.6056Q420.27087,1101.6195,420.33588,1101.6282Q420.4662,1101.645,420.60162,1101.645Q420.80914,1101.6497,421.28387,1101.5896"/>
</g>
<g style="fill:rgb(0,0,0); fill-opacity:1.0; stroke-linejoin: miter">
<path d="M419.95032,1100.8635L419.93158,1100.8905Q419.805,1101.0671,419.77618,1101.1793Q419.74634,1101.2795,419.8025,1101.4602Q419.99976,1101.5831,420.1247,1101.6149Q420.2292,1101.65,420.53815,1101.6667Q420.69232,1101.5686,420.7293,1101.5078Q420.77057,1101.4496,420.7813,1101.3715Q420.7929,1101.3224,420.78607,1101.1473Q420.57074,1100.9829,420.4284,1100.9387Q420.27087,1100.8849,419.95032,1100.8635"/>
</g>
<g style="fill:rgb(0,0,0); fill-opacity:1.0; stroke-linejoin: miter">
<path d="M421.8189,1100.5114L421.74976,1100.4464Q421.54602,1100.2456,421.30786,1100.0797Q421.22717,1100.0258,421.13904,1099.9792L421.04822,1099.9348Q420.9552,1099.8922,420.8518,1099.8607Q420.7481,1099.829,420.6339,1099.808L420.5174,1099.7888Q420.3985,1099.7721,420.27203,1099.7627Q419.95764,1099.7379,419.33276,1099.7511L421.8189,1100.5114"/>
</g>
<g style="fill:rgb(255,255,255); fill-opacity:1.0; stroke-linejoin: miter">
<path d="M424.53802,1102.1995L424.63574,1102.1656Q424.92987,1102.0579,425.21588,1101.9996Q425.31104,1101.9823,425.40424,1101.9753L425.4969,1101.972L425.58838,1101.9757Q425.7044,1101.9886,425.71753,1101.9941Q425.89203,1102.0264,426.12958,1102.1605Q426.32068,1102.2671,426.68927,1102.562Q426.26245,1102.6643,426.0302,1102.6862Q425.93713,1102.6958,425.84528,1102.6969L425.75372,1102.6958Q425.66254,1102.6919,425.57275,1102.6772L425.50916,1102.6649Q425.44568,1102.6504,425.38293,1102.6313Q425.25757,1102.5919,425.1347,1102.535Q424.9442,1102.4529,424.53802,1102.1995"/>
</g>
<g style="fill:rgb(0,0,0); fill-opacity:1.0; stroke-linejoin: miter">
<path d="M426.0531,1102.098L426.05872,1102.1304Q426.0999,1102.3438,426.07922,1102.4583Q426.0642,1102.5615,425.93774,1102.7021Q425.7071,1102.7312,425.58044,1102.7074Q425.47076,1102.6956,425.18298,1102.582Q425.08405,1102.4285,425.076,1102.3575Q425.06287,1102.2874,425.08588,1102.212Q425.096,1102.1625,425.17523,1102.0063Q425.4397,1101.9469,425.5874,1101.9668Q425.75305,1101.9833,426.0531,1102.098"/>
</g>
<g style="fill:rgb(0,0,0); fill-opacity:1.0; stroke-linejoin: miter">
<path d="M424.50336,1100.9961L424.5935,1100.9658Q424.86218,1100.8693,425.14807,1100.8181Q425.24402,1100.8022,425.34363,1100.7969L425.44458,1100.7948Q425.54663,1100.7958,425.65387,1100.8099Q425.76123,1100.8247,425.8739,1100.8533L425.98773,1100.8845Q426.1026,1100.9192,426.22137,1100.9637Q426.5174,1101.0729,427.0794,1101.3462L424.50336,1100.9961"/>
</g>
<g style="fill:rgb(140,80,53); fill-opacity:0.5529412; stroke-linejoin: miter">
<path d="M424.2956,1105.6259L422.89893,1106.1838L421.87073,1104.9932L423.0401,1105.7257L424.2956,1105.6259"/>
</g>
<g style="fill:rgb(140,80,53); fill-opacity:0.34901962; stroke-linejoin: miter">
<path d="M423.2107,1110.683L423.0929,1110.777C422.55896,1111.237,422.03955,1111.512,421.53235,1111.5872C420.90344,1111.6796,420.3246,1111.5802,419.79346,1111.313C419.31006,1111.07,418.81628,1110.6965,418.3125,1110.1888C417.7088,1109.5803,416.90216,1108.6302,415.89667,1107.3346L422.5351,1116.2875L423.62122,1113.2299L423.2107,1110.683 Z"/>
</g>
<g style="fill:rgb(154,58,58); fill-opacity:1.0; stroke-linejoin: miter">
<path d="M414.26697,1101.1862L414.26697,1101.1863L414.26703,1101.1862L414.26697,1101.1863"/>
</g>
<g style="fill:rgb(158,226,255); fill-opacity:0.99607843; stroke-linejoin: miter">
<path d="M422.00488,1111.1611L422.00488,1111.1611L422.00488,1111.1611L422.00488,1111.1611"/>
</g>
<g style="fill:rgb(158,226,255); fill-opacity:0.99607843; stroke-linejoin: miter">
<path d="M422.15863,1106.2662L422.15863,1106.2665L422.15863,1106.2662L422.15863,1106.2665"/>
</g>
<g style="fill:rgb(255,0,0); fill-opacity:0.99607843; stroke-linejoin: miter">
<path d="M420.52423,1106.7924L420.30396,1106.8098Q420.73602,1107.0502,421.17224,1107.2551Q421.53723,1107.4142,421.6117,1107.4346Q421.75922,1107.4865,421.9082,1107.526Q422.24982,1107.6132,422.58423,1107.6293Q422.70874,1107.6387,422.94788,1107.636Q423.05334,1107.6343,423.15924,1107.6293Q423.21204,1107.6284,423.47754,1107.6088Q423.69025,1107.5912,423.90338,1107.5709L422.9339,1107.1061L420.52423,1106.7924"/>
</g>
<g style="fill:rgb(255,0,0); fill-opacity:0.99607843; stroke-linejoin: miter">
<path d="M421.03198,1107.7062L421.03198,1107.7062L421.03198,1107.7062L421.03198,1107.7062"/>
</g>
<g style="fill:rgb(236,122,94); fill-opacity:0.99607843; stroke-linejoin: miter">
<path d="M418.203,1097.9291L418.203,1097.9291L418.203,1097.9291L418.203,1097.9291"/>
</g>
<g style="fill:rgb(255,255,255); fill-opacity:0.99607843; stroke-linejoin: miter">
<path d="M423.72394,1107.4243L420.9635,1106.8766L420.27997,1106.8323L421.23553,1107.7664L422.7868,1108.2876L423.94067,1107.536L423.72394,1107.4243"/>
</g>
<g style="fill:rgb(255,88,171); fill-opacity:1.0; stroke-linejoin: miter">
<path d="M423.95148,1107.5851L423.95148,1107.5852Q423.3891,1107.0294,423.09778,1106.8932Q422.95532,1106.8236,422.7973,1106.8005Q422.63556,1106.7782,422.4112,1106.7911Q422.1654,1106.6636,421.94934,1106.6139Q421.70166,1106.5547,421.33765,1106.6019Q420.98138,1106.647,420.31354,1106.8086L422.2401,1107.3983L423.95148,1107.5851"/>
</g>
<g style="fill:rgb(255,88,171); fill-opacity:1.0; stroke-linejoin: miter">
<path d="M423.8839,1107.5977L423.81268,1107.6759Q423.27844,1108.286,422.83453,1108.4985Q422.38318,1108.7122,421.8214,1108.5881Q421.26892,1108.4586,420.91772,1108.046Q420.6435,1107.7622,420.31183,1106.804Q420.93842,1107.3049,421.2954,1107.5104Q421.43787,1107.5946,421.58252,1107.6615L421.72797,1107.7228Q421.87384,1107.7795,422.02264,1107.8129Q422.17157,1107.8457,422.3233,1107.8553L422.47565,1107.8595Q422.6286,1107.859,422.7837,1107.8412Q423.1709,1107.8008,423.8839,1107.5977"/>
</g>
<g style="fill:rgb(0,0,0); fill-opacity:0.99607843; stroke-linejoin: miter">
<path d="M414.0631,1091.4021L414.0545,1091.8488Q414.15063,1093.2098,415.11194,1094.1045Q416.08044,1094.9989,417.50043,1094.9685Q418.8617,1094.8726,419.7561,1093.9114Q420.04285,1093.6005,420.2439,1093.2218L420.41925,1092.8301Q420.57117,1092.4227,420.61176,1091.9695Q420.69714,1090.575,419.85327,1089.5712Q419.00952,1088.567,417.62115,1088.4116Q416.22675,1088.3262,415.22284,1089.1699Q414.21887,1090.0137,414.0631,1091.4021"/>
</g>
<g style="fill:rgb(0,0,0); fill-opacity:1.0; stroke-linejoin: miter">
<path d="M409.8346,1094.1089L409.83453,1094.1089L409.8346,1094.1089L409.83453,1094.1089L409.8346,1094.1089 Z"/>
</g>
<g style="fill:rgb(0,0,0); fill-opacity:1.0; stroke-linejoin: miter">
<path d="M409.8346,1094.1089L409.83453,1094.1089L409.8346,1094.1089L409.83453,1094.1089L409.8346,1094.1089 Z"/>
</g>
<g style="fill:rgb(244,67,54); fill-opacity:1.0; stroke-linejoin: miter">
<path d="M420.4309,1114.2568L420.43085,1114.2568L420.43085,1114.2571L420.4309,1114.2568"/>
</g>
<g style="fill:rgb(165,179,188); fill-opacity:1.0; stroke-linejoin: miter">
<path d="M439.33295,1100.0685L439.33295,1100.0685C439.33295,1111.0,430.4713,1119.862,419.53973,1119.862L419.53973,1119.862C408.60822,1119.862,399.74658,1111.0,399.74658,1100.0685L399.74658,1100.0685C399.74658,1089.137,408.60834,1080.2754,419.53973,1080.2754L419.53973,1080.2754C430.471,1080.2754,439.33295,1089.1367,439.33295,1100.0685L439.33295,1100.0685 M406.67712,1100.0685L406.67712,1100.0685C406.67712,1107.1727,412.43604,1112.9314,419.53973,1112.9314L419.53973,1112.9314C426.6435,1112.9314,432.40247,1107.1725,432.40247,1100.0685L432.40247,1100.0685C432.40247,1092.9648,426.64368,1087.2058,419.53973,1087.2058L419.53973,1087.2058C412.4359,1087.2058,406.67712,1092.9647,406.67712,1100.0685 Z"/>
</g>
</g>
<g style="fill:rgb(165,179,188); fill-opacity:1.0; stroke-linejoin: miter">
<path d="M383.57343,1120.9325L383.57343,1120.9325L383.57343,1120.9327L383.57343,1120.9325L383.57343,1120.9325L383.57343,1120.9325L383.57343,1120.9327Q383.57343,1120.9325,383.57343,1120.9325"/>
</g>
<g>
<g style="fill:rgb(0,0,0); fill-opacity:1.0; stroke-linejoin: miter">
<path d="M410.40594,1187.9944L419.28802,1187.9958C420.92316,1187.9944,422.24866,1189.32,422.24866,1190.9551L422.24866,1196.8765C422.24866,1198.5117,420.92316,1199.8375,419.28802,1199.8375L410.40594,1199.839C408.77075,1199.8375,407.4452,1198.5117,407.4452,1196.8765L407.4452,1190.9551C407.4452,1189.32,408.77075,1187.9944,410.40594,1187.9944 Z M422.24866,1192.4354L425.8015,1189.7708C426.45557,1189.2805,427.38342,1189.4132,427.87402,1190.067L427.87402,1195.9885C427.87402,1196.806,427.2113,1197.4686,426.39368,1197.4686C426.07336,1197.4686,425.76166,1197.3646,425.5055,1197.1727L421.95258,1194.5082 Z"/>
</g>
<g style="fill:rgb(0,0,0); fill-opacity:1.0; stroke-linejoin: miter">
<path d="M410.40594,1187.9944L410.40594,1187.9944L419.28802,1187.9958L419.28802,1187.9958C420.92224,1187.9944,422.2472,1189.3185,422.24866,1190.9525L422.24866,1190.9525C422.24866,1190.9536,422.24866,1190.9539,422.24866,1190.9551L422.24866,1190.9551L422.24866,1196.8765L422.24866,1196.8765C422.24866,1198.5117,420.92316,1199.8375,419.28802,1199.8375L419.28802,1199.8375L410.40594,1199.839L410.40594,1199.839C408.77075,1199.8375,407.4452,1198.5117,407.4452,1196.8765L407.4452,1196.8765L407.4452,1190.9551L407.4452,1190.9551C407.4452,1189.32,408.77075,1187.9944,410.40594,1187.9944L410.40594,1187.9944 M410.40594,1187.9944L410.40594,1187.9944C408.77075,1187.9944,407.4452,1189.32,407.4452,1190.9551L407.4452,1190.9551L407.4452,1196.8765L407.4452,1196.8765C407.4452,1198.5117,408.77075,1199.8375,410.40594,1199.839L410.40594,1199.839L419.28802,1199.8375L419.28802,1199.8375C420.92316,1199.8375,422.24866,1198.5117,422.24866,1196.8765L422.24866,1196.8765L422.24866,1190.9551L422.24866,1190.9551C422.24866,1190.9539,422.24866,1190.9536,422.24866,1190.9525L422.24866,1190.9525C422.2472,1189.3185,420.92224,1187.9944,419.28802,1187.9958L419.28802,1187.9958L410.40594,1187.9944 Z M422.24866,1192.4354L422.24866,1192.4354L425.8015,1189.7708L425.8015,1189.7708C426.45557,1189.2805,427.38342,1189.4132,427.87402,1190.067L427.87402,1190.067L427.87402,1195.9885L427.87402,1195.9885C427.87402,1196.806,427.2113,1197.4686,426.39368,1197.4686L426.39368,1197.4686C426.07336,1197.4686,425.76166,1197.3646,425.5055,1197.1727L425.5055,1197.1727L421.95258,1194.5082L421.95258,1194.5082L422.24866,1192.4354L422.24866,1192.4354 M422.24866,1192.4354L422.24866,1192.4354L421.95258,1194.5082L421.95258,1194.5082L425.5055,1197.1727L425.5055,1197.1727C425.76166,1197.3646,426.07336,1197.4686,426.39368,1197.4686L426.39368,1197.4686C427.2113,1197.4686,427.87402,1196.806,427.87402,1195.9885L427.87402,1195.9885L427.87402,1190.067L427.87402,1190.067C427.38342,1189.4132,426.45557,1189.2805,425.8015,1189.7708L425.8015,1189.7708L422.24866,1192.4354 Z"/>
</g>
</g>
<g>
<g>
<g style="fill:rgb(0,0,0); fill-opacity:1.0; stroke-linejoin: miter">
<path d="M440.70447,1188.139C441.66003,1188.139,442.43768,1188.9167,442.43768,1189.8722L442.43768,1193.3386C442.43768,1194.2941,441.66003,1195.0718,440.70447,1195.0718C439.74896,1195.0718,438.9713,1194.2941,438.9713,1193.3386L438.9713,1189.8722C438.9713,1188.9167,439.74896,1188.139,440.70447,1188.139 Z M440.70447,1186.9838C439.11578,1186.9838,437.81586,1188.2837,437.81586,1189.8722L437.81586,1193.3386C437.81586,1194.9274,439.11578,1196.2269,440.70447,1196.2269C442.29327,1196.2269,443.59308,1194.9274,443.59308,1193.3386L443.59308,1189.8722C443.59308,1188.2837,442.29327,1186.9838,440.70447,1186.9838 Z"/>
</g>
<g style="fill:rgb(0,0,0); fill-opacity:1.0; stroke-linejoin: miter">
<path d="M445.904,1192.183L445.904,1193.3386C445.904,1196.002,443.87042,1198.2147,441.28223,1198.5033L441.28223,1199.6934L443.59308,1199.6938C443.91083,1199.6934,444.17084,1199.9535,444.17084,1200.2712C444.17084,1200.5889,443.91083,1200.8489,443.59308,1200.8489L437.81586,1200.8494C437.49817,1200.8489,437.23816,1200.5889,437.23816,1200.2712C437.23816,1199.9535,437.49817,1199.6934,437.81586,1199.6934L440.1267,1199.6938L440.1267,1198.5033C437.5385,1198.2147,435.505,1196.002,435.505,1193.3386L435.505,1192.183C435.505,1191.8652,435.76495,1191.6055,436.08276,1191.6055C436.40045,1191.6055,436.66046,1191.8652,436.66046,1192.183L436.66046,1193.3386C436.66046,1195.5685,438.4745,1197.3824,440.70447,1197.3824C442.9345,1197.3824,444.74854,1195.5685,444.74854,1193.3386L444.74854,1192.183C444.74854,1191.8652,445.00854,1191.6055,445.3263,1191.6055C445.64404,1191.6055,445.904,1191.8652,445.904,1192.183 Z"/>
</g>
</g>
<g style="fill:rgb(0,0,0); fill-opacity:1.0; stroke-linejoin: miter">
<path d="M440.70447,1188.1278C439.74304,1188.1278,438.96027,1188.9103,438.96027,1189.8722L438.96027,1193.3386C438.96027,1194.3002,439.74304,1195.0828,440.70447,1195.0828C441.66608,1195.0828,442.44867,1194.3002,442.44867,1193.3386L442.44867,1189.8722C442.44867,1188.9103,441.66595,1188.1278,440.70447,1188.1278 Z"/>
</g>
</g>
<g>
<g style="fill:rgb(0,0,0); fill-opacity:1.0; stroke-linejoin: miter">
<path d="M396.68518,1198.8531L386.99414,1198.8531C385.274,1198.8531,383.86517,1197.4445,383.86517,1195.7242L383.86517,1192.109C383.86517,1190.3887,385.274,1188.98,386.99414,1188.98L396.68518,1188.98C398.40533,1188.98,399.81415,1190.3887,399.81415,1192.109L399.81415,1195.7242C399.81415,1197.448,398.40533,1198.8531,396.68518,1198.8531 Z"/>
</g>
<g style="fill:rgb(255,255,255); fill-opacity:1.0; stroke-linejoin: miter">
<path d="M386.35736,1191.808L390.1015,1191.808L393.84552,1191.808L393.84552,1192.5546Q390.1015,1192.5546,386.35736,1192.5546Q386.35736,1192.1812,386.35736,1191.808"/>
</g>
<g style="fill:rgb(255,255,255); fill-opacity:1.0; stroke-linejoin: miter">
<path d="M386.38312,1193.5459L393.87134,1193.5459L393.87134,1194.2922L386.38312,1194.2922L386.38312,1193.5459"/>
</g>
<g style="fill:rgb(255,255,255); fill-opacity:1.0; stroke-linejoin: miter">
<path d="M386.44745,1195.2837L390.1916,1195.2837L393.9356,1195.2837L393.9356,1196.0302Q390.1916,1196.0302,386.44745,1196.0302Q386.44745,1195.6569,386.44745,1195.2837"/>
</g>
</g>
<g style="fill:rgb(0,0,0); fill-opacity:0.25882354; stroke-linejoin: miter">
<path d="M576.7632,1262.192L575.63806,1262.5095Q572.0834,1262.9359,562.4429,1263.2864Q557.6226,1263.4617,551.28094,1263.6179Q534.0955,1263.992,528.8327,1264.044Q520.14923,1264.1718,510.7804,1264.2657Q506.5243,1264.3339,481.13208,1264.4718Q460.33862,1264.5585,436.80402,1264.5103Q414.34314,1264.4427,395.87988,1264.2598Q373.67517,1264.0057,370.43347,1263.9202Q362.70087,1263.7853,355.96765,1263.6216Q325.90173,1262.8296,330.9964,1261.9752Q333.23572,1261.5499,342.08282,1261.1906Q346.5064,1261.0107,352.5819,1260.8475Q354.68506,1260.7539,374.3296,1260.3988Q406.97723,1259.8748,453.5265,1259.8524Q465.1637,1259.8579,475.93225,1259.8949Q502.09308,1260.0146,506.2826,1260.0763Q525.21295,1260.2443,540.66797,1260.5377Q556.12286,1260.831,564.97003,1261.1906Q569.3936,1261.3702,572.1652,1261.5663Q574.58344,1261.6542,576.7632,1262.192"/>
</g>
<g style="fill:rgb(165,179,188); fill-opacity:0.15686275; stroke-linejoin: miter">
<path d="M351.9159,1183.6344L402.68036,1183.6348L453.44476,1183.635Q453.44476,1193.9166,453.44476,1204.1981Q402.68036,1204.1985,351.9159,1204.1987Q351.9159,1193.9166,351.9159,1183.6344"/>
</g>
<g style="fill:rgb(51,202,35); fill-opacity:1.0; stroke-linejoin: miter">
<path d="M369.40192,1194.726L369.35577,1195.4116Q369.02795,1197.483,367.4372,1198.7251Q365.8355,1199.9661,363.66492,1199.7316Q361.59332,1199.4036,360.35132,1197.8129Q359.95337,1197.2986,359.69574,1196.6924L359.4792,1196.069Q359.30078,1195.4254,359.29877,1194.726Q359.35297,1192.5795,360.77832,1191.154Q362.20374,1189.7286,364.35034,1189.6744Q366.49695,1189.7286,367.92236,1191.154Q369.34778,1192.5795,369.40192,1194.726"/>
</g>
<g style="fill:rgb(0,0,0); fill-opacity:0.50980395; stroke-linejoin: miter">
<path d="M490.6832,1079.5513L523.4157,1079.5518L556.1482,1079.5524Q556.1482,1141.906,556.1482,1204.2595Q523.4157,1204.26,490.6832,1204.2605Q490.6832,1141.9059,490.6832,1079.5513"/>
</g>
<g style="fill:rgb(165,179,188); fill-opacity:0.7607843; stroke-linejoin: miter">
<path d="M494.56342,1083.1077L552.71655,1083.1079L552.71655,1138.0344L494.56342,1138.0349L494.56342,1083.1077"/>
</g>
<g style="fill:rgb(255,252,252); fill-opacity:1.0; stroke-linejoin: miter">
<path d="M543.19763,1111.1377L542.9201,1113.779Q542.58185,1115.5461,542.0242,1117.1453Q541.8825,1118.0505,539.8563,1121.5676Q538.08154,1124.2639,535.42816,1126.2898Q532.7571,1128.3132,529.72516,1129.1934Q528.2092,1129.6333,526.6031,1129.7881Q525.8563,1130.0437,521.58167,1129.6084Q517.5748,1128.5256,516.9638,1128.0273Q515.5436,1127.325,514.28186,1126.3872Q511.75848,1124.512,509.86945,1121.6973Q505.67322,1114.904,506.72705,1107.8098Q507.20758,1104.2759,508.64783,1101.3333Q509.36798,1099.862,510.32788,1098.5381Q510.67297,1097.7688,513.7174,1094.9294Q518.7537,1090.76,525.68335,1090.8613Q526.635,1090.7605,530.5539,1091.7932Q532.07227,1092.2957,533.4507,1093.0549Q536.2074,1094.5728,538.4038,1097.116Q540.92926,1100.4062,541.1328,1101.2168Q541.8542,1102.6792,542.324,1104.269Q543.26337,1107.4487,543.19763,1111.1377"/>
</g>
<g style="fill:rgb(0,0,0); fill-opacity:1.0; stroke-linejoin: miter">
<path d="M515.3019,1113.7937L515.19434,1113.2122C514.21576,1108.3916,514.0343,1105.2571,514.49713,1103.758C514.8342,1102.6665,515.3847,1101.4658,516.3008,1100.1973C517.23535,1098.9043,518.267,1097.8984,519.39417,1097.1741C520.12946,1096.7017,521.0396,1096.4373,522.12964,1096.4128C523.1016,1096.3906,525.2967,1095.8567,527.0316,1096.4214C530.18097,1097.4475,530.25916,1097.638,531.118,1098.4817C532.89874,1100.2312,534.2831,1101.1396,534.4052,1101.9905C534.61035,1102.4512,534.58105,1103.78,534.3269,1105.9773C534.15625,1107.4507,533.5486,1110.7539,532.4941,1115.887L515.3019,1113.7937 Z"/>
</g>
<g style="fill:rgb(255,184,157); fill-opacity:1.0; stroke-linejoin: miter">
<path d="M524.8672,1130.0176L517.7809,1128.1785L518.17084,1122.8677C517.33765,1121.9678,516.83685,1121.1814,516.60156,1120.531C516.3741,1119.9023,516.1817,1118.7712,516.0897,1117.1138C515.62103,1117.4648,515.2135,1117.1191,514.8368,1116.0898C514.44244,1115.012,514.14636,1113.8672,514.13824,1112.6392C514.13025,1111.4004,514.45496,1110.7544,514.953,1110.7C515.25946,1110.7542,515.59845,1111.5483,515.96967,1113.081C516.3753,1110.1763,516.68097,1108.1772,516.8693,1107.081C517.0436,1106.0659,517.3055,1105.1941,517.6848,1104.4751C518.06647,1103.7512,518.65186,1103.4309,519.42804,1103.5071L520.2237,1103.6365C522.2235,1104.2134,523.35254,1104.491,523.61115,1104.4692C523.7863,1104.5142,524.3231,1104.5337,525.22186,1104.5281L528.6091,1104.2922C529.06805,1104.2395,529.5568,1104.3625,530.07715,1104.6599C530.3022,1104.7886,530.56555,1105.1001,530.7296,1105.645C531.3356,1107.6553,531.5314,1108.8176,531.56696,1109.0845C531.6896,1110.0132,531.7453,1111.8242,531.6228,1114.5347C532.10114,1113.3574,532.67145,1112.5427,533.3339,1112.0901C533.77374,1111.9348,533.8515,1112.4717,533.5553,1113.6948C533.1786,1115.2515,532.8063,1116.384,532.4567,1117.0981C532.06274,1117.904,531.6213,1118.4324,531.1261,1118.679L530.00183,1121.5986L530.2134,1128.5195L524.8672,1130.0176 Z"/>
</g>
<g style="fill:rgb(244,67,54); fill-opacity:0.12941177; stroke-linejoin: miter">
<path d="M527.923,1123.4312L527.54987,1123.6433Q526.22485,1124.398,526.0158,1124.4683Q525.5393,1124.6921,525.1094,1124.8486Q524.342,1125.1577,523.39215,1125.2146Q522.63574,1125.2273,521.57184,1124.8643Q521.4137,1124.8245,520.6129,1124.4424Q520.1216,1124.2017,519.4574,1123.8438L523.96606,1128.3108L527.923,1123.4312"/>
</g>
<g style="fill:rgb(255,255,255); fill-opacity:0.99607843; stroke-linejoin: miter">
<path d="M529.695,1117.946L529.695,1117.946Q534.7781,1107.5842,529.695,1117.946"/>
</g>
<g style="fill:rgb(255,255,255); fill-opacity:0.99607843; stroke-linejoin: miter">
<path d="M529.4202,1117.9509L529.4202,1117.9512Q534.71014,1108.2869,529.4202,1117.9509"/>
</g>
<g style="fill:rgb(255,255,255); fill-opacity:0.99607843; stroke-linejoin: miter">
<path d="M526.5999,1110.845L526.71405,1110.8052Q527.3433,1110.5774,527.7163,1110.562Q527.82294,1110.5564,527.9263,1110.5664L528.0595,1110.5872L528.1621,1110.6128Q528.26373,1110.6428,528.3625,1110.6858Q528.4134,1110.7012,528.6542,1110.8381Q528.79834,1110.9216,529.1262,1111.1567Q528.6418,1111.4207,528.3765,1111.5034Q528.16406,1111.5747,527.95544,1111.5781L527.82947,1111.5703L527.72455,1111.5515L527.6203,1111.522Q527.41254,1111.4497,527.2083,1111.3142Q526.90265,1111.1064,526.5999,1110.845"/>
</g>
<g style="fill:rgb(84,69,69); fill-opacity:1.0; stroke-linejoin: miter">
<path d="M527.5814,1110.5525L527.556,1110.5791Q527.3839,1110.7446,527.3363,1110.9109Q527.2892,1111.0552,527.3358,1111.4473Q527.6305,1111.5471,527.833,1111.571Q528.0078,1111.5947,528.39575,1111.5713Q528.5779,1111.3154,528.5992,1111.1741Q528.63293,1111.0354,528.5612,1110.7302Q528.16156,1110.5833,528.00195,1110.5574Q527.84216,1110.5239,527.5814,1110.5525"/>
</g>
<g style="fill:rgb(0,0,0); fill-opacity:1.0; stroke-linejoin: miter">
<path d="M526.91766,1109.7122L526.9178,1109.7122Q527.30273,1109.5615,527.5185,1109.5161Q527.60474,1109.4968,527.6913,1109.4873L527.7782,1109.4795L527.8654,1109.4778L527.95264,1109.4819Q528.0611,1109.4922,528.1752,1109.5222L528.25116,1109.5432Q528.32745,1109.5669,528.40393,1109.5972Q528.55646,1109.6487,529.0189,1109.8972L526.91766,1109.7122"/>
</g>
<g style="fill:rgb(0,0,0); fill-opacity:0.99607843; stroke-linejoin: miter">
<path d="M528.8432,1103.999L528.8432,1103.999L528.8432,1103.999L528.8432,1103.999"/>
</g>
<g style="fill:rgb(255,255,255); fill-opacity:0.99607843; stroke-linejoin: miter">
<path d="M521.5144,1110.4246L521.41205,1110.3601Q520.8499,1109.9966,520.4903,1109.8982Q520.3873,1109.8694,520.28424,1109.8555L520.14984,1109.8462L520.0442,1109.8481Q519.93835,1109.8545,519.8325,1109.874Q519.7795,1109.8782,519.51416,1109.957Q519.3548,1110.0063,518.9823,1110.1619Q519.3951,1110.5278,519.63525,1110.6682Q519.8265,1110.7847,520.02893,1110.8345L520.1532,1110.8557L520.2598,1110.8613L520.3681,1110.8557Q520.5868,1110.8318,520.8159,1110.7456Q521.16077,1110.6116,521.5144,1110.4246"/>
</g>
<g style="fill:rgb(84,69,69); fill-opacity:1.0; stroke-linejoin: miter">
<path d="M520.6234,1109.9199L520.6423,1109.9509Q520.7729,1110.1506,520.7818,1110.3235Q520.7955,1110.4753,520.6621,1110.8467Q520.3524,1110.8779,520.14966,1110.8552Q519.9737,1110.8398,519.60126,1110.73Q519.48126,1110.4395,519.4922,1110.2964Q519.4905,1110.1536,519.62897,1109.873Q520.0513,1109.8191,520.21277,1109.8301Q520.3758,1109.833,520.6234,1109.9199"/>
</g>
<g style="fill:rgb(0,0,0); fill-opacity:1.0; stroke-linejoin: miter">
<path d="M521.459,1109.2495L521.459,1109.2495Q521.11755,1109.0161,520.91754,1108.9233Q520.83765,1108.8857,520.75555,1108.8564L520.6724,1108.8296L520.5878,1108.8083L520.50195,1108.7937Q520.3942,1108.7783,520.27637,1108.782L520.19727,1108.7861Q520.11774,1108.7917,520.03656,1108.804Q519.876,1108.8201,519.36975,1108.9583L521.459,1109.2495"/>
</g>
<g style="fill:rgb(255,0,0); fill-opacity:0.07058824; stroke-linejoin: miter">
<path d="M520.7698,1118.9343L520.93304,1118.8762Q522.17664,1118.4338,522.6204,1118.4233Q522.88086,1118.3945,523.2344,1118.4651Q523.48596,1118.5181,523.8591,1118.6636Q524.3017,1118.418,524.55865,1118.3284Q524.91516,1118.2083,525.10364,1118.2529Q525.3459,1118.2971,525.5499,1118.4583Q525.7931,1118.6426,526.15735,1119.0759Q525.36383,1119.4331,525.1684,1119.4924Q524.1995,1119.8516,523.3358,1119.7351Q522.82,1119.6655,522.2725,1119.4902Q521.36456,1119.1853,520.7698,1118.9343"/>
</g>
<g style="fill:rgb(255,0,0); fill-opacity:0.07058824; stroke-linejoin: miter">
<path d="M522.3654,1114.3501L523.1865,1115.186L524.0077,1116.0225Q524.70386,1115.1863,525.39996,1114.3508Q524.6817,1114.7959,523.9634,1115.241L522.3654,1114.3501"/>
</g>
<g style="fill:rgb(242,226,226); fill-opacity:0.99607843; stroke-linejoin: miter">
<path d="M525.4739,1110.2964L525.4741,1110.2971L525.4739,1110.2964L525.4741,1110.2971"/>
</g>
<g style="fill:rgb(84,69,69); fill-opacity:0.99607843; stroke-linejoin: miter">
<path d="M524.82465,1129.8853L524.82465,1129.8853L524.82465,1129.8853L524.82465,1129.8853"/>
</g>
<g style="fill:rgb(165,179,188); fill-opacity:1.0; stroke-linejoin: miter">
<path d="M549.4324,1109.032L549.4324,1109.032C550.45734,1122.9304,540.0211,1135.03,526.12213,1136.0542L526.12213,1136.0542C512.2233,1137.0791,500.12537,1126.6423,499.10022,1112.7432L499.10022,1112.7432C498.07538,1098.8445,508.51178,1086.7461,522.4104,1085.7212L522.4104,1085.7212C536.3091,1084.6965,548.4074,1095.1323,549.4324,1109.032L549.4324,1109.032 M507.91205,1112.0935L507.91205,1112.0935C508.57825,1121.1262,516.44037,1127.9084,525.4723,1127.2422L525.4723,1127.2422C534.5044,1126.5757,541.2866,1118.7141,540.6205,1109.6816L540.6205,1109.6816C539.9546,1100.6497,532.09235,1093.8672,523.06024,1094.5334L523.06024,1094.5334C514.02826,1095.1995,507.24603,1103.0615,507.91205,1112.0935 Z"/>
</g>
<g style="fill:rgb(155,166,173); fill-opacity:1.0; stroke-linejoin: miter">
<path d="M402.77264,1139.6595L424.01172,1139.663C427.9215,1139.6595,431.09106,1142.8291,431.09106,1146.74L431.09106,1160.8984C431.09106,1164.8098,427.9215,1167.9794,424.01172,1167.9794L402.77264,1167.9823C398.8626,1167.9794,395.69293,1164.8098,395.69293,1160.8984L395.69293,1146.74C395.69293,1142.8291,398.8626,1139.6595,402.77264,1139.6595 Z"/>
</g>
<g style="fill:rgb(155,166,173); fill-opacity:1.0; stroke-linejoin: miter">
<path d="M431.09106,1150.2797L439.58655,1143.9072C441.15076,1142.7344,443.36957,1143.0529,444.54248,1144.6162L444.54248,1158.7758C444.54248,1160.7302,442.9577,1162.315,441.0027,1162.315C440.23682,1162.315,439.49146,1162.0657,438.87872,1161.6074L430.38336,1155.2356 Z"/>
</g>
<g style="fill:rgb(0,0,0); fill-opacity:1.0; stroke-linejoin: miter">
<path d="M402.77264,1139.6595L402.77264,1139.6595L424.01172,1139.663L424.01172,1139.663C427.9193,1139.6595,431.0874,1142.8262,431.09106,1146.7332L431.09106,1146.7332C431.09106,1146.736,431.09106,1146.737,431.09106,1146.74L431.09106,1146.74L431.09106,1160.8984L431.09106,1160.8984C431.09106,1164.8098,427.9215,1167.9794,424.01172,1167.9794L424.01172,1167.9794L402.77264,1167.9823L402.77264,1167.9823C398.8626,1167.9794,395.69293,1164.8098,395.69293,1160.8984L395.69293,1160.8984L395.69293,1146.74L395.69293,1146.74C395.69293,1142.8291,398.8626,1139.6595,402.77264,1139.6595L402.77264,1139.6595 M402.77264,1139.6595L402.77264,1139.6595C398.8626,1139.6595,395.69293,1142.8291,395.69293,1146.74L395.69293,1146.74L395.69293,1160.8984L395.69293,1160.8984C395.69293,1164.8098,398.8626,1167.9794,402.77264,1167.9823L402.77264,1167.9823L424.01172,1167.9794L424.01172,1167.9794C427.9215,1167.9794,431.09106,1164.8098,431.09106,1160.8984L431.09106,1160.8984L431.09106,1146.74L431.09106,1146.74C431.09106,1146.737,431.09106,1146.736,431.09106,1146.7332L431.09106,1146.7332C431.0874,1142.8262,427.9193,1139.6595,424.01172,1139.663L424.01172,1139.663L402.77264,1139.6595 Z M431.09106,1150.2797L431.09106,1150.2797L439.58655,1143.9072L439.58655,1143.9072C441.15076,1142.7344,443.36957,1143.0529,444.54248,1144.6162L444.54248,1144.6162L444.54248,1158.7758L444.54248,1158.7758C444.54248,1160.7302,442.9577,1162.315,441.0027,1162.315L441.0027,1162.315C440.23682,1162.315,439.49146,1162.0657,438.87872,1161.6074L438.87872,1161.6074L430.38336,1155.2356L430.38336,1155.2356L431.09106,1150.2797L431.09106,1150.2797 M431.09106,1150.2797L431.09106,1150.2797L430.38336,1155.2356L430.38336,1155.2356L438.87872,1161.6074L438.87872,1161.6074C439.49146,1162.0657,440.23682,1162.315,441.0027,1162.315L441.0027,1162.315C442.9577,1162.315,444.54248,1160.7302,444.54248,1158.7758L444.54248,1158.7758L444.54248,1144.6162L444.54248,1144.6162C443.36957,1143.0529,441.15076,1142.7344,439.58655,1143.9072L439.58655,1143.9072L431.09106,1150.2797 Z"/>
</g>
<g style="fill:rgb(181,179,179); fill-opacity:0.6313726; stroke-linejoin: miter">
<path d="M499.57007,1147.7958L518.4445,1147.7959L537.319,1147.796L537.319,1150.5995L499.57007,1150.5997L499.57007,1147.7958"/>
</g>
<g style="fill:rgb(160,159,159); fill-opacity:1.0; stroke-linejoin: miter">
<path d="M499.57007,1157.7604L522.1462,1157.7609L544.7223,1157.7614Q544.7223,1159.1627,544.7223,1160.5641Q522.1462,1160.5646,499.57007,1160.5652Q499.57007,1159.1627,499.57007,1157.7604"/>
</g>
<g style="fill:rgb(160,159,159); fill-opacity:1.0; stroke-linejoin: miter">
<path d="M499.57007,1167.725L518.4445,1167.7251L537.3189,1167.7252L537.3189,1170.5286L499.57007,1170.5289L499.57007,1167.725"/>
</g>
<g style="fill:rgb(160,159,159); fill-opacity:1.0; stroke-linejoin: miter">
<path d="M499.57007,1177.6896L522.1793,1177.6901L544.78845,1177.6906Q544.78845,1179.0919,544.78845,1180.4933Q522.1793,1180.4938,499.57007,1180.4944Q499.57007,1179.0919,499.57007,1177.6896"/>
</g>
<g style="fill:rgb(160,159,159); fill-opacity:1.0; stroke-linejoin: miter">
<path d="M499.57007,1187.654L523.3691,1187.6547L547.1681,1187.6552Q547.1681,1189.0564,547.1681,1190.4579Q523.3691,1190.4584,499.57007,1190.4589Q499.57007,1189.0564,499.57007,1187.654"/>
</g>
<g style="fill:rgb(124,133,138); fill-opacity:1.0; stroke-linejoin: miter">
<path d="M404.29962,1141.6959L422.48468,1141.6987C425.83234,1141.6959,428.54608,1144.4097,428.54608,1147.7583L428.54608,1159.8807C428.54608,1163.2297,425.83234,1165.9436,422.48468,1165.9436L404.29962,1165.946C400.95178,1165.9436,398.23785,1163.2297,398.23785,1159.8807L398.23785,1147.7583C398.23785,1144.4097,400.95178,1141.6959,404.29962,1141.6959 Z"/>
</g>
</g>
</svg>